<svg viewBox="0 0 100 100" fill="none" xmlns="http://www.w3.org/2000/svg">
  <defs>
    <linearGradient id="canvaGrad" x1="0%" y1="0%" x2="100%" y2="100%">
      <stop offset="0%" stop-color="#00C4CC" />
      <stop offset="100%" stop-color="#7D2AE8" />
    </linearGradient>
  </defs>
  <circle cx="50" cy="50" r="42" fill="url(#canvaGrad)" />
  <path d="M64 64 C58 70 48 72 40 68 C30 62 26 50 32 40 C38 30 50 26 60 32 C65 35 68 40 68 45 C68 48 66 50 63 50 C60 50 58 48 58 45 C58 41 55 38 50 38 C44 38 38 44 38 50 C38 56 44 62 50 62 C55 62 58 59 60 56 C61 54 63 53 65 55 C67 57 67 61 64 64 Z" fill="#FFFFFF" />
</svg>
